<svg xmlns="http://www.w3.org/2000/svg" xmlns:xlink="http://www.w3.org/1999/xlink" width="500" zoomAndPan="magnify" viewBox="0 0 375 374.999991" height="500" preserveAspectRatio="xMidYMid meet" version="1.0"><defs><clipPath id="73ec47aaf2"><path d="M 5.96875 5.96875 L 368.96875 5.96875 L 368.96875 368.96875 L 5.96875 368.96875 Z M 5.96875 5.96875 " clip-rule="nonzero"/></clipPath></defs><g clip-path="url(#73ec47aaf2)"><path fill="#898989" d="M 187.496094 5.96875 C 184.527344 5.96875 181.558594 6.039062 178.589844 6.1875 C 175.621094 6.332031 172.660156 6.550781 169.703125 6.84375 C 166.746094 7.132812 163.800781 7.496094 160.863281 7.933594 C 157.921875 8.367188 154.996094 8.875 152.082031 9.457031 C 149.167969 10.035156 146.269531 10.6875 143.390625 11.410156 C 140.507812 12.128906 137.644531 12.921875 134.800781 13.785156 C 131.960938 14.648438 129.140625 15.578125 126.34375 16.578125 C 123.542969 17.582031 120.773438 18.648438 118.027344 19.785156 C 115.285156 20.921875 112.570312 22.125 109.882812 23.398438 C 107.199219 24.667969 104.546875 26.003906 101.925781 27.402344 C 99.304688 28.804688 96.722656 30.265625 94.171875 31.792969 C 91.625 33.320312 89.117188 34.910156 86.644531 36.5625 C 84.175781 38.210938 81.746094 39.921875 79.359375 41.691406 C 76.972656 43.460938 74.632812 45.289062 72.335938 47.171875 C 70.039062 49.058594 67.789062 50.996094 65.589844 52.992188 C 63.386719 54.988281 61.238281 57.035156 59.136719 59.136719 C 57.035156 61.238281 54.988281 63.386719 52.992188 65.589844 C 50.996094 67.789062 49.058594 70.039062 47.171875 72.335938 C 45.289062 74.632812 43.460938 76.972656 41.691406 79.359375 C 39.921875 81.746094 38.210938 84.175781 36.5625 86.644531 C 34.910156 89.117188 33.320312 91.625 31.792969 94.171875 C 30.265625 96.722656 28.804688 99.304688 27.402344 101.925781 C 26.003906 104.546875 24.667969 107.199219 23.398438 109.882812 C 22.125 112.570312 20.921875 115.285156 19.785156 118.027344 C 18.648438 120.773438 17.582031 123.542969 16.578125 126.34375 C 15.578125 129.140625 14.648438 131.960938 13.785156 134.800781 C 12.921875 137.644531 12.128906 140.507812 11.410156 143.390625 C 10.6875 146.269531 10.035156 149.167969 9.457031 152.082031 C 8.875 154.996094 8.367188 157.921875 7.933594 160.863281 C 7.496094 163.800781 7.132812 166.746094 6.84375 169.703125 C 6.550781 172.660156 6.332031 175.621094 6.1875 178.589844 C 6.039062 181.558594 5.96875 184.527344 5.96875 187.496094 C 5.96875 190.46875 6.039062 193.4375 6.1875 196.40625 C 6.332031 199.371094 6.550781 202.332031 6.84375 205.289062 C 7.132812 208.246094 7.496094 211.195312 7.933594 214.132812 C 8.367188 217.070312 8.875 220 9.457031 222.910156 C 10.035156 225.824219 10.6875 228.722656 11.410156 231.605469 C 12.128906 234.488281 12.921875 237.347656 13.785156 240.191406 C 14.648438 243.035156 15.578125 245.855469 16.578125 248.652344 C 17.582031 251.449219 18.648438 254.222656 19.785156 256.964844 C 20.921875 259.710938 22.125 262.425781 23.398438 265.109375 C 24.667969 267.796875 26.003906 270.449219 27.402344 273.070312 C 28.804688 275.691406 30.265625 278.273438 31.792969 280.820312 C 33.320312 283.371094 34.910156 285.878906 36.5625 288.347656 C 38.210938 290.820312 39.921875 293.246094 41.691406 295.632812 C 43.460938 298.019531 45.289062 300.363281 47.171875 302.660156 C 49.058594 304.953125 50.996094 307.203125 52.992188 309.40625 C 54.988281 311.605469 57.035156 313.757812 59.136719 315.859375 C 61.238281 317.957031 63.386719 320.007812 65.589844 322 C 67.789062 323.996094 70.039062 325.9375 72.335938 327.820312 C 74.632812 329.707031 76.972656 331.535156 79.359375 333.304688 C 81.746094 335.074219 84.175781 336.78125 86.644531 338.433594 C 89.117188 340.082031 91.625 341.671875 94.171875 343.199219 C 96.722656 344.726562 99.304688 346.191406 101.925781 347.59375 C 104.546875 348.992188 107.199219 350.328125 109.882812 351.597656 C 112.570312 352.867188 115.285156 354.070312 118.027344 355.207031 C 120.773438 356.34375 123.542969 357.414062 126.34375 358.414062 C 129.140625 359.414062 131.960938 360.347656 134.800781 361.210938 C 137.644531 362.074219 140.507812 362.863281 143.390625 363.585938 C 146.269531 364.308594 149.167969 364.960938 152.082031 365.539062 C 154.996094 366.117188 157.921875 366.625 160.863281 367.0625 C 163.800781 367.496094 166.746094 367.859375 169.703125 368.152344 C 172.660156 368.445312 175.621094 368.664062 178.589844 368.808594 C 181.558594 368.953125 184.527344 369.027344 187.496094 369.027344 C 190.46875 369.027344 193.4375 368.953125 196.40625 368.808594 C 199.371094 368.664062 202.332031 368.445312 205.289062 368.152344 C 208.246094 367.859375 211.195312 367.496094 214.132812 367.0625 C 217.070312 366.625 220 366.117188 222.910156 365.539062 C 225.824219 364.957031 228.722656 364.308594 231.605469 363.585938 C 234.488281 362.863281 237.347656 362.074219 240.191406 361.210938 C 243.035156 360.347656 245.855469 359.414062 248.652344 358.414062 C 251.449219 357.414062 254.222656 356.34375 256.964844 355.207031 C 259.710938 354.070312 262.425781 352.867188 265.109375 351.597656 C 267.796875 350.328125 270.449219 348.992188 273.070312 347.59375 C 275.691406 346.191406 278.273438 344.726562 280.820312 343.199219 C 283.371094 341.671875 285.878906 340.082031 288.347656 338.433594 C 290.820312 336.78125 293.246094 335.074219 295.632812 333.304688 C 298.019531 331.535156 300.363281 329.707031 302.660156 327.820312 C 304.953125 325.9375 307.203125 323.996094 309.40625 322 C 311.605469 320.007812 313.757812 317.957031 315.859375 315.859375 C 317.957031 313.757812 320.007812 311.605469 322 309.40625 C 323.996094 307.203125 325.9375 304.953125 327.820312 302.660156 C 329.707031 300.363281 331.535156 298.019531 333.304688 295.632812 C 335.074219 293.246094 336.78125 290.820312 338.433594 288.347656 C 340.082031 285.878906 341.671875 283.371094 343.199219 280.820312 C 344.726562 278.273438 346.191406 275.691406 347.59375 273.070312 C 348.992188 270.449219 350.328125 267.796875 351.597656 265.109375 C 352.867188 262.425781 354.070312 259.710938 355.207031 256.964844 C 356.34375 254.222656 357.414062 251.449219 358.414062 248.652344 C 359.414062 245.855469 360.347656 243.035156 361.210938 240.191406 C 362.074219 237.347656 362.863281 234.488281 363.585938 231.605469 C 364.308594 228.722656 364.960938 225.824219 365.539062 222.910156 C 366.117188 220 366.625 217.070312 367.0625 214.132812 C 367.496094 211.195312 367.859375 208.246094 368.152344 205.289062 C 368.445312 202.332031 368.664062 199.371094 368.808594 196.40625 C 368.953125 193.4375 369.027344 190.46875 369.027344 187.496094 C 369.027344 184.527344 368.953125 181.558594 368.808594 178.589844 C 368.660156 175.625 368.441406 172.660156 368.152344 169.707031 C 367.859375 166.75 367.496094 163.800781 367.058594 160.863281 C 366.621094 157.925781 366.113281 154.996094 365.535156 152.085938 C 364.953125 149.171875 364.304688 146.273438 363.582031 143.390625 C 362.859375 140.507812 362.066406 137.648438 361.203125 134.804688 C 360.34375 131.960938 359.410156 129.140625 358.410156 126.34375 C 357.410156 123.546875 356.339844 120.777344 355.203125 118.03125 C 354.066406 115.289062 352.863281 112.574219 351.589844 109.886719 C 350.320312 107.203125 348.984375 104.550781 347.585938 101.929688 C 346.183594 99.308594 344.71875 96.726562 343.191406 94.175781 C 341.664062 91.628906 340.078125 89.121094 338.425781 86.652344 C 336.777344 84.179688 335.066406 81.753906 333.296875 79.367188 C 331.527344 76.980469 329.699219 74.640625 327.8125 72.34375 C 325.929688 70.046875 323.988281 67.796875 321.996094 65.597656 C 320 63.394531 317.953125 61.242188 315.851562 59.144531 C 313.75 57.042969 311.601562 54.996094 309.398438 53 C 307.199219 51.003906 304.949219 49.066406 302.652344 47.179688 C 300.355469 45.296875 298.015625 43.46875 295.628906 41.699219 C 293.242188 39.929688 290.8125 38.21875 288.34375 36.566406 C 285.875 34.917969 283.363281 33.328125 280.816406 31.800781 C 278.269531 30.273438 275.683594 28.808594 273.066406 27.410156 C 270.445312 26.007812 267.792969 24.671875 265.105469 23.402344 C 262.421875 22.132812 259.707031 20.929688 256.960938 19.792969 C 254.21875 18.65625 251.445312 17.585938 248.648438 16.585938 C 245.851562 15.585938 243.03125 14.652344 240.191406 13.789062 C 237.347656 12.925781 234.484375 12.136719 231.601562 11.414062 C 228.722656 10.691406 225.824219 10.039062 222.910156 9.460938 C 219.996094 8.878906 217.070312 8.371094 214.132812 7.9375 C 211.195312 7.5 208.246094 7.136719 205.289062 6.84375 C 202.332031 6.550781 199.371094 6.332031 196.402344 6.1875 C 193.4375 6.042969 190.46875 5.96875 187.496094 5.96875 Z M 187.496094 74.042969 C 188.570312 74.039062 189.644531 74.070312 190.714844 74.132812 C 191.789062 74.195312 192.859375 74.289062 193.925781 74.410156 C 194.992188 74.535156 196.054688 74.6875 197.113281 74.875 C 198.167969 75.058594 199.222656 75.273438 200.265625 75.519531 C 201.3125 75.765625 202.351562 76.039062 203.378906 76.347656 C 204.410156 76.652344 205.429688 76.988281 206.4375 77.351562 C 207.449219 77.71875 208.445312 78.109375 209.433594 78.535156 C 210.421875 78.957031 211.394531 79.40625 212.355469 79.886719 C 213.320312 80.363281 214.265625 80.871094 215.195312 81.40625 C 216.128906 81.9375 217.042969 82.5 217.945312 83.085938 C 218.84375 83.671875 219.726562 84.285156 220.589844 84.921875 C 221.453125 85.558594 222.296875 86.222656 223.125 86.910156 C 223.949219 87.59375 224.753906 88.304688 225.539062 89.039062 C 226.324219 89.773438 227.085938 90.527344 227.828125 91.304688 C 228.570312 92.082031 229.285156 92.878906 229.980469 93.699219 C 230.675781 94.519531 231.347656 95.355469 231.992188 96.214844 C 232.640625 97.070312 233.261719 97.945312 233.855469 98.839844 C 234.453125 99.734375 235.019531 100.644531 235.5625 101.570312 C 236.105469 102.496094 236.621094 103.4375 237.109375 104.394531 C 237.597656 105.351562 238.058594 106.320312 238.492188 107.304688 C 238.925781 108.289062 239.328125 109.28125 239.703125 110.289062 C 240.078125 111.296875 240.421875 112.3125 240.738281 113.335938 C 241.054688 114.363281 241.339844 115.398438 241.597656 116.441406 C 241.851562 117.484375 242.078125 118.535156 242.273438 119.589844 C 242.46875 120.644531 242.632812 121.707031 242.769531 122.773438 C 242.902344 123.839844 243.003906 124.90625 243.078125 125.976562 C 243.148438 127.050781 243.191406 128.121094 243.199219 129.195312 C 243.210938 130.269531 243.191406 131.34375 243.136719 132.414062 C 243.085938 133.488281 243.003906 134.558594 242.890625 135.625 C 242.773438 136.695312 242.628906 137.757812 242.457031 138.816406 C 242.28125 139.878906 242.074219 140.929688 241.835938 141.976562 C 241.601562 143.027344 241.335938 144.066406 241.039062 145.097656 C 240.742188 146.128906 240.414062 147.152344 240.058594 148.164062 C 239.703125 149.179688 239.320312 150.179688 238.90625 151.171875 C 238.492188 152.164062 238.050781 153.140625 237.578125 154.105469 C 237.109375 155.074219 236.609375 156.023438 236.085938 156.960938 C 235.558594 157.898438 235.007812 158.816406 234.429688 159.722656 C 233.851562 160.625 233.246094 161.515625 232.617188 162.382812 C 231.984375 163.253906 231.332031 164.105469 230.652344 164.9375 C 229.972656 165.769531 229.269531 166.578125 228.542969 167.371094 C 227.816406 168.160156 227.070312 168.929688 226.296875 169.679688 C 225.527344 170.425781 224.734375 171.152344 223.921875 171.855469 C 223.109375 172.554688 222.277344 173.234375 221.425781 173.886719 C 220.574219 174.542969 219.703125 175.171875 218.816406 175.773438 C 217.929688 176.378906 217.023438 176.953125 216.101562 177.507812 C 215.179688 178.058594 214.242188 178.582031 213.289062 179.078125 C 212.339844 179.574219 211.371094 180.042969 210.394531 180.484375 C 209.414062 180.925781 208.421875 181.339844 207.421875 181.722656 C 206.417969 182.105469 205.402344 182.460938 204.378906 182.785156 C 203.355469 183.109375 202.324219 183.40625 201.285156 183.671875 C 200.242188 183.9375 199.195312 184.171875 198.140625 184.375 C 197.089844 184.582031 196.027344 184.753906 194.964844 184.898438 C 193.898438 185.042969 192.832031 185.15625 191.761719 185.238281 C 190.691406 185.320312 189.617188 185.371094 188.546875 185.390625 C 187.472656 185.410156 186.398438 185.398438 185.324219 185.355469 C 184.25 185.3125 183.179688 185.238281 182.113281 185.132812 C 181.042969 185.03125 179.976562 184.894531 178.917969 184.730469 C 177.855469 184.5625 176.800781 184.367188 175.75 184.140625 C 174.703125 183.914062 173.660156 183.65625 172.625 183.367188 C 171.589844 183.082031 170.5625 182.761719 169.546875 182.417969 C 168.53125 182.070312 167.527344 181.695312 166.53125 181.289062 C 165.535156 180.882812 164.554688 180.449219 163.585938 179.988281 C 162.617188 179.527344 161.660156 179.039062 160.71875 178.519531 C 159.777344 178.003906 158.851562 177.460938 157.941406 176.890625 C 111.199219 147.277344 131.449219 74.609375 187.496094 74.042969 Z M 252.792969 300.953125 L 122.203125 300.953125 C 120.855469 300.949219 119.511719 300.882812 118.171875 300.746094 C 116.832031 300.613281 115.5 300.414062 114.179688 300.148438 C 112.855469 299.882812 111.550781 299.554688 110.261719 299.160156 C 108.972656 298.769531 107.707031 298.3125 106.464844 297.796875 C 105.21875 297.277344 104.003906 296.703125 102.816406 296.066406 C 101.628906 295.429688 100.476562 294.734375 99.355469 293.984375 C 98.234375 293.238281 97.15625 292.433594 96.113281 291.578125 C 95.074219 290.722656 94.078125 289.816406 93.125 288.863281 C 92.171875 287.910156 91.269531 286.914062 90.414062 285.871094 C 89.5625 284.828125 88.757812 283.746094 88.011719 282.625 C 87.261719 281.507812 86.570312 280.351562 85.9375 279.164062 C 85.300781 277.972656 84.726562 276.757812 84.210938 275.511719 C 83.695312 274.269531 83.242188 273 82.851562 271.710938 C 82.460938 270.421875 82.132812 269.117188 81.871094 267.792969 C 81.605469 266.472656 81.410156 265.140625 81.277344 263.800781 C 81.144531 262.460938 81.078125 261.117188 81.074219 259.769531 C 81.074219 224.882812 106.773438 194.757812 143.648438 181.199219 C 145.164062 182.484375 146.734375 183.699219 148.359375 184.84375 C 149.984375 185.992188 151.65625 187.0625 153.371094 188.0625 C 155.089844 189.0625 156.851562 189.984375 158.648438 190.828125 C 160.449219 191.671875 162.28125 192.4375 164.148438 193.121094 C 166.015625 193.804688 167.90625 194.402344 169.824219 194.921875 C 171.746094 195.4375 173.683594 195.871094 175.640625 196.21875 C 177.597656 196.566406 179.566406 196.824219 181.546875 197 C 183.527344 197.175781 185.507812 197.261719 187.496094 197.261719 C 189.484375 197.261719 191.46875 197.175781 193.449219 197 C 195.429688 196.824219 197.398438 196.566406 199.355469 196.21875 C 201.3125 195.871094 203.25 195.4375 205.167969 194.921875 C 207.089844 194.402344 208.980469 193.804688 210.847656 193.121094 C 212.714844 192.4375 214.546875 191.671875 216.34375 190.828125 C 218.144531 189.984375 219.902344 189.0625 221.621094 188.0625 C 223.339844 187.0625 225.011719 185.992188 226.636719 184.84375 C 228.261719 183.699219 229.832031 182.484375 231.347656 181.199219 C 268.222656 194.757812 293.917969 224.878906 293.917969 259.769531 C 293.917969 261.117188 293.851562 262.460938 293.71875 263.800781 C 293.585938 265.140625 293.386719 266.472656 293.125 267.796875 C 292.863281 269.117188 292.535156 270.421875 292.144531 271.710938 C 291.753906 273 291.300781 274.269531 290.785156 275.511719 C 290.269531 276.757812 289.691406 277.972656 289.058594 279.164062 C 288.421875 280.351562 287.730469 281.507812 286.984375 282.625 C 286.234375 283.746094 285.433594 284.828125 284.578125 285.871094 C 283.726562 286.914062 282.820312 287.910156 281.871094 288.863281 C 280.917969 289.816406 279.921875 290.722656 278.878906 291.578125 C 277.839844 292.433594 276.757812 293.238281 275.640625 293.984375 C 274.519531 294.734375 273.367188 295.429688 272.179688 296.066406 C 270.992188 296.703125 269.773438 297.277344 268.53125 297.796875 C 267.285156 298.3125 266.019531 298.769531 264.730469 299.160156 C 263.441406 299.554688 262.136719 299.882812 260.816406 300.148438 C 259.496094 300.414062 258.164062 300.613281 256.824219 300.746094 C 255.484375 300.882812 254.136719 300.949219 252.792969 300.953125 Z M 252.792969 300.953125 " fill-opacity="1" fill-rule="nonzero"/></g></svg>